<svg width="33" height="32" viewBox="0 0 33 32" fill="none" xmlns="http://www.w3.org/2000/svg">
<circle cx="16.25" cy="16" r="16" fill="black"/>
<path fill-rule="evenodd" clip-rule="evenodd" d="M16.25 0C7.41344 0 0.25 7.16344 0.25 16C0.25 24.8366 7.41344 32 16.25 32C25.0866 32 32.25 24.8366 32.25 16C32.25 7.16344 25.0866 0 16.25 0ZM23.1417 12.4466H18.6222V11.1517H23.1417V12.4466ZM22.7434 13.5335C22.1995 13.293 21.5884 13.1722 20.9091 13.1722C19.7661 13.1722 18.8379 13.5296 18.1205 14.2394C17.405 14.9512 17.0468 15.9738 17.0468 17.3072C17.0468 18.7288 17.4421 19.7563 18.2379 20.3869C19.0296 21.0185 19.9458 21.3333 20.9843 21.3333C22.2417 21.3333 23.22 20.9591 23.9184 20.2117C24.366 19.7405 24.6188 19.2762 24.674 18.8209H22.5919C22.4714 19.0466 22.331 19.2228 22.1714 19.3505C21.8814 19.5851 21.5031 19.7029 21.0405 19.7029C20.601 19.7029 20.2267 19.6059 19.9157 19.4128C19.4019 19.103 19.133 18.5615 19.0988 17.7903H24.7814C24.7904 17.1261 24.7683 16.6153 24.7132 16.2628C24.6188 15.66 24.4121 15.1293 24.09 14.672C23.7368 14.1533 23.2883 13.7731 22.7434 13.5335ZM12.8132 10.6667C14.0996 10.6855 15.0098 11.0547 15.5466 11.7754C15.8687 12.2179 16.0303 12.7465 16.0303 13.3633C16.0303 13.9978 15.8687 14.5096 15.5426 14.8957C15.36 15.1115 15.092 15.3095 14.7378 15.4877C15.2757 15.6817 15.6811 15.9876 15.957 16.4064C16.23 16.8241 16.3674 17.333 16.3674 17.9309C16.3674 18.5476 16.2109 19.101 15.8968 19.59C15.6981 19.9138 15.4493 20.187 15.1502 20.4087C14.8141 20.6631 14.4177 20.8364 13.9591 20.9314C13.5006 21.0255 13.0049 21.071 12.469 21.071H7.71667V10.6667H12.8132Z" fill="white"/>
<path fill-rule="evenodd" clip-rule="evenodd" d="M9.81885 12.4733H12.1147C12.6195 12.4733 13.0349 12.5278 13.362 12.6357C13.7393 12.7921 13.928 13.1118 13.928 13.5979C13.928 14.0335 13.7845 14.3384 13.4995 14.5106C13.2125 14.6829 12.8402 14.769 12.3837 14.769H9.81885V12.4733ZM19.6928 15.2719C19.9808 14.9789 20.3882 14.8324 20.91 14.8324C21.3917 14.8324 21.7941 14.97 22.1212 15.2462C22.4443 15.5243 22.6269 15.9282 22.664 16.4628H19.149C19.2232 15.9619 19.4048 15.5649 19.6928 15.2719ZM12.4158 16.4905H9.81885V19.2653H12.3797C12.8372 19.2653 13.1945 19.204 13.4483 19.0822C13.9109 18.8545 14.1417 18.4229 14.1417 17.7834C14.1417 17.2409 13.919 16.8697 13.4704 16.6667C13.2195 16.5539 12.8673 16.4945 12.4158 16.4905Z" fill="white"/>
</svg>
