<svg width="33" height="32" viewBox="0 0 33 32" fill="none" xmlns="http://www.w3.org/2000/svg">
<circle cx="16.25" cy="16" r="16" fill="black"/>
<path fill-rule="evenodd" clip-rule="evenodd" d="M16.25 0C7.41344 0 0.25 7.16344 0.25 16C0.25 24.8366 7.41344 32 16.25 32C25.0866 32 32.25 24.8366 32.25 16C32.25 7.16344 25.0866 0 16.25 0ZM24.6092 14.2726C24.7246 14.8331 24.7833 15.4106 24.7833 15.9882C24.7833 16.5653 24.7246 17.1415 24.6092 17.7033C24.4967 18.2517 24.33 18.7901 24.1117 19.3048C23.8983 19.8104 23.6337 20.2976 23.3245 20.7519C23.02 21.2034 22.6691 21.627 22.2837 22.0131C21.8974 22.3976 21.4724 22.7475 21.0211 23.0533C20.5652 23.3604 20.0773 23.6246 19.5715 23.8389C19.056 24.0561 18.5164 24.2225 17.9684 24.3349C17.4059 24.4506 16.8275 24.5096 16.2496 24.5096C15.6713 24.5096 15.0929 24.4506 14.5312 24.3349C13.9824 24.2225 13.4428 24.0561 12.9278 23.8389C12.4219 23.6246 11.9336 23.3604 11.4777 23.0533C11.0264 22.7475 10.6014 22.3976 10.216 22.0131C9.83014 21.627 9.47927 21.2034 9.17426 20.7519C8.86675 20.2976 8.60172 19.8103 8.38755 19.3048C8.16918 18.7901 8.00211 18.2517 7.88919 17.7033C7.77502 17.1415 7.71667 16.5653 7.71667 15.9882C7.71667 15.4106 7.77499 14.8331 7.88922 14.2726C8.00215 13.7242 8.16921 13.1849 8.38759 12.6711C8.60175 12.1651 8.86678 11.6775 9.1743 11.2231C9.47931 10.7713 9.83018 10.3485 10.216 9.96193C10.6015 9.57745 11.0265 9.22838 11.4777 8.92298C11.9336 8.61464 12.422 8.35045 12.9278 8.13573C13.4429 7.91808 13.9824 7.75125 14.5312 7.63975C15.0929 7.52492 15.6713 7.46666 16.2497 7.46666C16.8276 7.46666 17.4059 7.52492 17.9685 7.63975C18.5164 7.75128 19.056 7.91811 19.5715 8.13573C20.0773 8.35042 20.5653 8.61464 21.0211 8.92298C21.4724 9.22838 21.8974 9.57745 22.2837 9.96193C22.6691 10.3485 23.02 10.7713 23.3246 11.2231C23.6337 11.6775 23.8983 12.1652 24.1117 12.6711C24.33 13.1849 24.4967 13.7242 24.6092 14.2726Z" fill="white"/>
<path fill-rule="evenodd" clip-rule="evenodd" d="M21.0617 10.5276L21.0624 10.5266C19.7794 9.39689 18.0947 8.71164 16.2496 8.71164C15.6575 8.71164 15.0829 8.78321 14.5325 8.91552L14.5443 8.93138C14.7169 9.16217 16.0448 10.9382 17.2568 13.1604C19.984 12.1395 21.0273 10.579 21.0617 10.5276ZM21.8771 11.366C21.8487 11.4066 20.6765 13.0789 17.8177 14.2448C17.9868 14.5918 18.1506 14.945 18.3018 15.3C18.3556 15.4273 18.4081 15.5521 18.4594 15.6769C20.9149 15.3684 23.3347 15.8717 23.526 15.9115L23.5346 15.9132C23.518 14.1882 22.9 12.6049 21.8775 11.3654L21.8771 11.366ZM18.9035 16.8253C19.8593 19.4484 20.2477 21.5846 20.3219 22.0231C21.9582 20.9205 23.1204 19.1696 23.4445 17.1415C23.2945 17.0933 21.2557 16.4487 18.9035 16.8253ZM17.538 17.1624C18.5635 19.8237 18.9868 22.0522 19.0948 22.688C18.2201 23.0595 17.2588 23.2647 16.2497 23.2647C14.5596 23.2647 13.0078 22.6851 11.7706 21.7243C11.7858 21.6914 13.19 18.675 17.4897 17.1782C17.4997 17.1745 17.5099 17.1713 17.5202 17.1681L17.5202 17.1681L17.5202 17.168L17.5203 17.168L17.538 17.1624ZM16.45 14.7199C16.6588 15.1285 16.8584 15.543 17.0413 15.9565C16.9455 15.984 16.8488 16.0123 16.7538 16.0439C12.8211 17.3138 10.8268 20.8468 10.8293 20.8506C9.66844 19.5619 8.96216 17.8576 8.96216 15.9882C8.96216 15.9342 8.96394 15.8814 8.96573 15.8282C8.96654 15.8043 8.96735 15.7803 8.968 15.756C9.09716 15.761 12.6978 15.8417 16.45 14.7199ZM15.8463 13.5994C14.585 11.3617 13.2374 9.53551 13.1403 9.40607C11.1081 10.3643 9.59135 12.2342 9.1184 14.4878L9.12541 14.4878C9.37447 14.4901 12.3842 14.518 15.8463 13.5994Z" fill="white"/>
</svg>
