<svg width="22" height="18" viewBox="0 0 22 18" fill="none" xmlns="http://www.w3.org/2000/svg">
<path d="M18.66 0.99C16.02 -0.81 12.76 0.03 11 2.09C9.23997 0.03 5.97997 -0.82 3.33997 0.99C1.93997 1.95 1.05997 3.57 0.999969 5.28C0.859969 9.16 4.29997 12.27 9.54997 17.04L9.64997 17.13C10.41 17.82 11.58 17.82 12.34 17.12L12.45 17.02C17.7 12.26 21.13 9.15 21 5.27C20.94 3.57 20.06 1.95 18.66 0.99ZM11.1 15.55L11 15.65L10.9 15.55C6.13997 11.24 2.99997 8.39 2.99997 5.5C2.99997 3.5 4.49997 2 6.49997 2C8.03997 2 9.53997 2.99 10.07 4.36H11.94C12.46 2.99 13.96 2 15.5 2C17.5 2 19 3.5 19 5.5C19 8.39 15.86 11.24 11.1 15.55Z" fill="black"/>
</svg>
