<svg width="33" height="32" viewBox="0 0 33 32" fill="none" xmlns="http://www.w3.org/2000/svg">
<circle cx="16.25" cy="16" r="16" fill="black"/>
<path fill-rule="evenodd" clip-rule="evenodd" d="M16.25 0C7.41344 0 0.25 7.16344 0.25 16C0.25 24.8366 7.41344 32 16.25 32C25.0866 32 32.25 24.8366 32.25 16C32.25 7.16344 25.0866 0 16.25 0ZM7.93109 13.2519H11.557V24.1464H7.93109V13.2519ZM11.7958 9.8818C11.7723 8.8136 11.0084 8 9.76803 8C8.52761 8 7.71667 8.8136 7.71667 9.8818C7.71667 10.9279 8.50364 11.7649 9.72096 11.7649H9.74413C11.0084 11.7649 11.7958 10.9279 11.7958 9.8818ZM20.4588 12.9961C22.8448 12.9961 24.6336 14.5535 24.6336 17.8998L24.6335 24.1464H21.0077V18.3178C21.0077 16.8538 20.483 15.8548 19.1704 15.8548C18.1686 15.8548 17.5719 16.5283 17.3099 17.1788C17.214 17.4119 17.1905 17.7367 17.1905 18.0623V24.1467H13.5641C13.5641 24.1467 13.6119 14.2745 13.5641 13.2522H17.1905V14.7953C17.6717 14.0535 18.5336 12.9961 20.4588 12.9961Z" fill="white"/>
</svg>
