<svg width="18" height="18" viewBox="0 0 18 18" fill="none" xmlns="http://www.w3.org/2000/svg">
<path d="M12.9999 11H12.2099L11.9299 10.73C13.1299 9.33 13.7499 7.42 13.4099 5.39C12.9399 2.61 10.6199 0.39 7.81989 0.05C3.58989 -0.47 0.0298932 3.09 0.549893 7.32C0.889893 10.12 3.10989 12.44 5.88989 12.91C7.91989 13.25 9.82989 12.63 11.2299 11.43L11.4999 11.71V12.5L15.7499 16.75C16.1599 17.16 16.8299 17.16 17.2399 16.75C17.6499 16.34 17.6499 15.67 17.2399 15.26L12.9999 11ZM6.99989 11C4.50989 11 2.49989 8.99 2.49989 6.5C2.49989 4.01 4.50989 2 6.99989 2C9.48989 2 11.4999 4.01 11.4999 6.5C11.4999 8.99 9.48989 11 6.99989 11Z" fill="#828282"/>
</svg>
