<svg width="33" height="32" viewBox="0 0 33 32" fill="none" xmlns="http://www.w3.org/2000/svg">
<circle cx="16.25" cy="16" r="16" fill="black"/>
<path fill-rule="evenodd" clip-rule="evenodd" d="M0.25 16C0.25 24.8366 7.41344 32 16.25 32C25.0866 32 32.25 24.8366 32.25 16C32.25 7.16344 25.0866 0 16.25 0C7.41344 0 0.25 7.16344 0.25 16ZM13.3166 23.3333L13.5889 19.2548L13.5886 19.2547L21.0079 12.5593C21.3335 12.2704 20.9368 12.1294 20.5046 12.3916L11.3482 18.1682L7.39309 16.9338C6.53897 16.6723 6.53284 16.0853 7.58485 15.6634L22.9968 9.72058C23.7008 9.401 24.3801 9.88964 24.1114 10.967L21.4868 23.3354C21.3035 24.2143 20.7724 24.4245 20.0366 24.0185L16.0384 21.0646L14.1166 22.9333C14.1106 22.9392 14.1045 22.9451 14.0985 22.9509C13.8836 23.1602 13.7058 23.3333 13.3166 23.3333Z" fill="white"/>
</svg>
